<svg width="40" height="40" viewBox="0 0 40 40" fill="none" xmlns="http://www.w3.org/2000/svg">
<rect width="40" height="40" rx="20" fill="#C9F8C1"/>
<path d="M20 23.75C20 25.8211 21.6789 27.5 23.75 27.5C25.8211 27.5 27.5 25.8211 27.5 23.75C27.5 21.6789 25.8211 20 23.75 20C21.6789 20 20 21.6789 20 23.75ZM20 23.75C20 22.9056 20.2791 22.1264 20.75 21.4996V14.75M20 23.75C20 24.369 20.15 24.953 20.4156 25.4676C19.7838 26.0013 18.3244 26.375 16.625 26.375C14.3468 26.375 12.5 25.7034 12.5 24.875V14.75M20.75 14.75C20.75 15.5784 18.9032 16.25 16.625 16.25C14.3468 16.25 12.5 15.5784 12.5 14.75M20.75 14.75C20.75 13.9216 18.9032 13.25 16.625 13.25C14.3468 13.25 12.5 13.9216 12.5 14.75M12.5 21.5C12.5 22.3284 14.3468 23 16.625 23C18.2668 23 19.6845 22.6512 20.3485 22.1463M20.75 18.125C20.75 18.9534 18.9032 19.625 16.625 19.625C14.3468 19.625 12.5 18.9534 12.5 18.125" stroke="black" stroke-width="1.2" stroke-linecap="round" stroke-linejoin="round"/>
</svg>
