<svg width="40" height="40" viewBox="0 0 40 40" fill="none" xmlns="http://www.w3.org/2000/svg">
<rect width="40" height="40" rx="20" fill="#C9F8C1"/>
<path d="M26.375 17V23.15C26.375 24.4101 26.375 25.0402 26.1298 25.5215C25.914 25.9448 25.5698 26.289 25.1465 26.5048C24.6652 26.75 24.0351 26.75 22.775 26.75H17.225C15.9649 26.75 15.3348 26.75 14.8535 26.5048C14.4302 26.289 14.086 25.9448 13.8702 25.5215C13.625 25.0402 13.625 24.4101 13.625 23.15V17M13.7 13.25H26.3C26.72 13.25 26.9301 13.25 27.0905 13.3317C27.2316 13.4037 27.3464 13.5184 27.4183 13.6595C27.5 13.8199 27.5 14.03 27.5 14.45V15.8C27.5 16.22 27.5 16.4301 27.4183 16.5905C27.3464 16.7316 27.2316 16.8463 27.0905 16.9183C26.9301 17 26.72 17 26.3 17H13.7C13.28 17 13.0699 17 12.9095 16.9183C12.7684 16.8463 12.6537 16.7316 12.5817 16.5905C12.5 16.4301 12.5 16.22 12.5 15.8V14.45C12.5 14.03 12.5 13.8199 12.5817 13.6595C12.6537 13.5184 12.7684 13.4037 12.9095 13.3317C13.0699 13.25 13.28 13.25 13.7 13.25ZM18.2 19.625H21.8C22.22 19.625 22.4301 19.625 22.5905 19.7067C22.7316 19.7787 22.8463 19.8934 22.9183 20.0345C23 20.1949 23 20.405 23 20.825V21.425C23 21.845 23 22.0551 22.9183 22.2155C22.8463 22.3566 22.7316 22.4713 22.5905 22.5433C22.4301 22.625 22.22 22.625 21.8 22.625H18.2C17.78 22.625 17.5699 22.625 17.4095 22.5433C17.2684 22.4713 17.1537 22.3566 17.0817 22.2155C17 22.0551 17 21.845 17 21.425V20.825C17 20.405 17 20.1949 17.0817 20.0345C17.1537 19.8934 17.2684 19.7787 17.4095 19.7067C17.5699 19.625 17.78 19.625 18.2 19.625Z" stroke="black" stroke-width="1.2" stroke-linecap="round" stroke-linejoin="round"/>
</svg>
