<svg width="40" height="40" viewBox="0 0 40 40" fill="none" xmlns="http://www.w3.org/2000/svg">
<rect width="40" height="40" rx="20" fill="#C9F8C1"/>
<path d="M21.1471 17.2639C20.7178 17.57 20.1924 17.75 19.625 17.75C18.1753 17.75 17 16.5747 17 15.125C17 13.6753 18.1753 12.5 19.625 12.5C20.5647 12.5 21.3891 12.9938 21.8529 13.7361M15.5 26.0654H17.4577C17.713 26.0654 17.9667 26.0957 18.2141 26.1565L20.2827 26.6592C20.7315 26.7685 21.1991 26.7791 21.6526 26.6911L23.9397 26.2461C24.5439 26.1284 25.0997 25.8391 25.5353 25.4154L27.1534 23.8413C27.6155 23.3925 27.6155 22.6643 27.1534 22.2148C26.7374 21.8101 26.0785 21.7645 25.6078 22.1077L23.7219 23.4836C23.4519 23.6811 23.1232 23.7874 22.7852 23.7874H20.9641L22.1233 23.7873C22.7767 23.7873 23.3059 23.2725 23.3059 22.6369V22.4069C23.3059 21.8791 22.9367 21.419 22.4106 21.2914L20.6214 20.8563C20.3303 20.7857 20.0321 20.75 19.7324 20.75C19.0087 20.75 17.6989 21.3491 17.6989 21.3491L15.5 22.2687M26 15.875C26 17.3247 24.8247 18.5 23.375 18.5C21.9253 18.5 20.75 17.3247 20.75 15.875C20.75 14.4253 21.9253 13.25 23.375 13.25C24.8247 13.25 26 14.4253 26 15.875ZM12.5 21.95L12.5 26.3C12.5 26.72 12.5 26.9301 12.5817 27.0905C12.6537 27.2316 12.7684 27.3463 12.9095 27.4183C13.0699 27.5 13.28 27.5 13.7 27.5H14.3C14.72 27.5 14.9301 27.5 15.0905 27.4183C15.2316 27.3463 15.3463 27.2316 15.4183 27.0905C15.5 26.9301 15.5 26.72 15.5 26.3V21.95C15.5 21.53 15.5 21.3199 15.4183 21.1595C15.3463 21.0184 15.2316 20.9037 15.0905 20.8317C14.9301 20.75 14.72 20.75 14.3 20.75L13.7 20.75C13.28 20.75 13.0699 20.75 12.9095 20.8317C12.7684 20.9037 12.6537 21.0184 12.5817 21.1595C12.5 21.3199 12.5 21.53 12.5 21.95Z" stroke="black" stroke-width="1.2" stroke-linecap="round" stroke-linejoin="round"/>
</svg>
