<svg width="40" height="40" viewBox="0 0 40 40" fill="none" xmlns="http://www.w3.org/2000/svg">
<rect width="40" height="40" rx="20" fill="#C9F8C1"/>
<path d="M26 18.5V16.1C26 14.8399 26 14.2098 25.7548 13.7285C25.539 13.3052 25.1948 12.961 24.7715 12.7452C24.2902 12.5 23.6601 12.5 22.4 12.5H17.6C16.3399 12.5 15.7098 12.5 15.2285 12.7452C14.8052 12.961 14.461 13.3052 14.2452 13.7285C14 14.2098 14 14.8399 14 16.1V23.9C14 25.1601 14 25.7902 14.2452 26.2715C14.461 26.6948 14.8052 27.039 15.2285 27.2548C15.7098 27.5 16.3399 27.5 17.6 27.5H18.875M20.75 19.25H17M19.25 22.25H17M23 16.25H17M25.4375 23.75V22.4375C25.4375 21.7126 24.8499 21.125 24.125 21.125C23.4001 21.125 22.8125 21.7126 22.8125 22.4375V23.75M22.7 26.75H25.55C25.97 26.75 26.1801 26.75 26.3405 26.6683C26.4816 26.5963 26.5963 26.4816 26.6683 26.3405C26.75 26.1801 26.75 25.97 26.75 25.55V24.95C26.75 24.53 26.75 24.3199 26.6683 24.1595C26.5963 24.0184 26.4816 23.9037 26.3405 23.8317C26.1801 23.75 25.97 23.75 25.55 23.75H22.7C22.28 23.75 22.0699 23.75 21.9095 23.8317C21.7684 23.9037 21.6537 24.0184 21.5817 24.1595C21.5 24.3199 21.5 24.53 21.5 24.95V25.55C21.5 25.97 21.5 26.1801 21.5817 26.3405C21.6537 26.4816 21.7684 26.5963 21.9095 26.6683C22.0699 26.75 22.28 26.75 22.7 26.75Z" stroke="black" stroke-width="1.2" stroke-linecap="round" stroke-linejoin="round"/>
</svg>
