<svg width="216" height="173" viewBox="0 0 216 173" fill="none" xmlns="http://www.w3.org/2000/svg">
<g clip-path="url(#clip0_1_949)">
<path d="M0 76.2906C9.04169 84.6151 17.3672 85.3985 22.5777 85.3985C49.4829 85.3985 67.3882 48.26 105.567 48.26C139.009 48.26 147.82 72.9718 150.236 77.0825C152.651 81.1933 162.03 107.168 168.425 112.821C174.82 118.474 197.489 133.566 207.504 153.911C210.072 159.127 212.336 168.559 212.336 173H0V76.2906Z" fill="#8C7BF7" fill-opacity="0.1"/>
<path d="M41.3526 120.49L39.545 119.468C39.0448 120.261 38.4375 120.974 37.8464 121.511C37.3537 121.959 36.5968 121.948 36.1165 121.486L36.0587 121.43C35.5301 120.922 35.5424 120.069 36.0918 119.583C36.6517 119.088 37.1955 118.468 37.6181 117.725C38.2329 116.643 38.2357 115.666 37.4741 115.235C36.7512 114.826 35.9488 115.175 34.6746 116.31C32.8348 117.954 31.0954 118.801 29.2499 117.757C27.575 116.81 26.9317 114.89 27.6868 112.633L25.8792 111.611L26.9365 109.75L28.6114 110.698C29.0349 110.025 29.4498 109.51 29.8468 109.108C30.3318 108.615 31.1248 108.609 31.6231 109.088C32.1375 109.583 32.1404 110.406 31.6259 110.901C31.2404 111.273 30.8216 111.765 30.4408 112.435C29.7397 113.669 30.0457 114.368 30.5782 114.67C31.2063 115.025 31.9831 114.587 33.5093 113.318C35.5926 111.511 37.1576 111.191 38.8695 112.161C40.5634 113.119 41.3298 115.133 40.4687 117.531L42.4098 118.629L41.3526 120.49Z" fill="#698EC4"/>
<path d="M128.311 149.437C132.869 143.317 136.531 143.264 136.531 143.264C136.531 143.264 138.193 132.511 136.867 127.938C135.542 123.364 129.547 127.374 129.547 127.374C129.547 127.374 137.495 111.834 134.235 110.088C128.162 106.836 118.597 123.32 118.597 123.32C118.597 123.32 120.838 116.065 116.543 116.091C110.067 116.132 109.507 132.768 109.507 132.768C109.507 132.768 108.23 129.49 104.235 131.368C99.9312 133.39 98.766 145.571 98.5215 154.984H121.207C124.453 153.001 127.104 151.057 128.312 149.436L128.311 149.437Z" fill="#AAFE5A"/>
<path d="M119.391 121.995C119.391 121.995 119.657 113.728 115.364 113.754C108.888 113.795 109.508 132.768 109.508 132.768C109.508 132.768 106.803 127.4 102.807 129.278C98.422 131.339 97.9019 144.801 98.0734 154.984H105.61L134.235 110.087C128.163 106.835 119.392 121.995 119.392 121.995L119.391 121.995Z" fill="#87DF36"/>
<path d="M154.652 154.447C154.652 154.447 175.325 156.822 180.332 155.072C185.34 153.322 182.024 150.524 182.024 150.524C182.024 150.524 192.615 149.175 193.636 146.031C194.658 142.887 189.647 142.867 189.647 142.867C189.647 142.867 200.277 137.016 199.084 134.747C196.861 130.521 184.933 136.287 184.933 136.287C184.933 136.287 189.05 132.985 186.571 131.334C182.832 128.845 176.022 138.192 176.022 138.192C176.022 138.192 176.566 135.812 173.537 135.341C168.102 134.496 154.652 154.446 154.652 154.446V154.447Z" fill="#AAFE5A"/>
<path d="M173.532 133.586C176.562 134.057 176.023 138.193 176.023 138.193C176.023 138.193 183.066 127.044 186.805 129.534C189.284 131.185 185.907 135.835 185.907 135.835C185.907 135.835 196.861 130.523 199.085 134.749L156.632 153.127C158.191 150.79 168.455 132.799 173.532 133.587V133.586Z" fill="#87DF36"/>
<path d="M154.524 154.747C154.524 154.747 173.336 141.691 176.042 135.951C178.748 130.211 173.565 130.69 173.565 130.69C173.565 130.69 181.303 120.525 179.467 117.013C177.63 113.502 173.405 117.758 173.405 117.758C173.405 117.758 177.32 103.779 174.372 102.891C168.883 101.238 163.515 118.94 163.515 118.94C163.515 118.94 161.464 109.146 157.968 109.874C152.694 110.971 157.956 125.45 157.956 125.45C157.956 125.45 156.401 120.734 153.453 122.922C148.163 126.847 154.525 154.747 154.525 154.747H154.524Z" fill="#8C7BF7"/>
<path d="M148.307 123.147C151.628 121.581 152.295 118.283 152.295 118.283C152.295 118.283 152.318 110.095 157.592 108.998C161.089 108.27 163.538 114.848 163.538 114.848C163.538 114.848 168.884 101.237 174.374 102.89L154.468 154.528C153.774 151.236 144.351 125.015 148.307 123.147Z" fill="#624CF0"/>
<path d="M148.724 154.788H110.791C109.581 154.788 108.601 153.81 108.601 152.603C108.601 151.396 109.581 150.418 110.791 150.418H148.724C149.934 150.418 150.915 151.396 150.915 152.603C150.915 153.81 149.934 154.788 148.724 154.788Z" fill="#C9AEE8"/>
<path d="M155.359 150.548H117.425C116.215 150.548 115.235 149.57 115.235 148.363C115.235 147.156 116.215 146.178 117.425 146.178H155.359C156.569 146.178 157.549 147.156 157.549 148.363C157.549 149.57 156.569 150.548 155.359 150.548Z" fill="#906EB3"/>
<path d="M150.052 146.531H112.118C110.908 146.531 109.928 145.553 109.928 144.347C109.928 143.14 110.908 142.162 112.118 142.162H150.052C151.262 142.162 152.242 143.14 152.242 144.347C152.242 145.553 151.262 146.531 150.052 146.531Z" fill="#C9AEE8"/>
<path d="M145.628 142.18H107.695C106.485 142.18 105.505 141.202 105.505 139.995C105.505 138.788 106.485 137.81 107.695 137.81H145.628C146.838 137.81 147.819 138.788 147.819 139.995C147.819 141.202 146.838 142.18 145.628 142.18Z" fill="#906EB3"/>
<path d="M153.532 156.058C164.007 156.058 172.499 147.588 172.499 137.139C172.499 126.691 164.007 118.22 153.532 118.22C143.058 118.22 134.566 126.691 134.566 137.139C134.566 147.588 143.058 156.058 153.532 156.058Z" fill="#A5BCDB"/>
<path d="M153.532 153.015C162.323 153.015 169.448 145.907 169.448 137.139C169.448 128.371 162.323 121.263 153.532 121.263C144.742 121.263 137.617 128.371 137.617 137.139C137.617 145.907 144.742 153.015 153.532 153.015Z" fill="#8C7BF7"/>
<path d="M148.605 147.333L149.511 144.841C148.401 144.382 147.371 143.77 146.566 143.143C145.895 142.619 145.747 141.665 146.227 140.963L146.285 140.877C146.815 140.104 147.895 139.936 148.627 140.524C149.373 141.122 150.272 141.673 151.3 142.045C152.799 142.588 154.035 142.381 154.415 141.332C154.777 140.335 154.165 139.401 152.457 138.042C149.987 136.081 148.545 134.075 149.469 131.531C150.309 129.224 152.596 128.004 155.609 128.47L156.515 125.978L159.092 126.909L158.252 129.217C159.193 129.606 159.932 130.018 160.526 130.43C161.252 130.934 161.429 131.93 160.93 132.659C160.415 133.412 159.376 133.591 158.639 133.05C158.086 132.645 157.376 132.223 156.447 131.888C154.738 131.27 153.92 131.805 153.653 132.539C153.338 133.404 154.058 134.288 155.988 135.935C158.716 138.168 159.454 140.068 158.596 142.427C157.747 144.761 155.367 146.156 152.152 145.586L151.18 148.262L148.603 147.33L148.605 147.333Z" fill="white"/>
<path d="M85.1316 154.019C85.1316 154.019 55.658 139.522 50.5896 131.962C45.5211 124.401 52.9722 123.973 52.9722 123.973C52.9722 123.973 39.8199 111.214 41.6701 105.842C43.5203 100.47 50.4257 105.603 50.4257 105.603C50.4257 105.603 41.8766 86.6176 45.8641 84.7294C53.2915 81.2131 63.7106 101.418 63.7106 101.418C63.7106 101.418 61.471 92.641 66.5859 92.9264C74.2993 93.3563 73.9801 113.212 73.9801 113.212C73.9801 113.212 74.8517 105.599 79.5004 108.072C87.842 112.509 85.1306 154.019 85.1306 154.019H85.1316Z" fill="#87DF36"/>
<path d="M81.1791 105.002C77.5487 102.993 73.9326 108.866 73.9326 108.866C73.9326 108.866 74.2993 93.3583 66.5858 92.9274C61.471 92.642 63.7105 101.419 63.7105 101.419C63.7105 101.419 53.2914 81.2141 45.864 84.7304L85.1656 153.697C85.4432 148.881 88.3715 108.982 81.1791 105.002Z" fill="#AAFE5A"/>
<path d="M84.3698 154.199C84.3698 154.199 60.2649 157.185 54.0237 154.524C47.7824 151.863 52.2549 148.576 52.2549 148.576C52.2549 148.576 38.8535 145.948 37.8189 141.847C36.7854 137.747 43.1829 138.149 43.1829 138.149C43.1829 138.149 30.1168 129.773 31.8354 126.979C35.0356 121.775 49.7653 130.155 49.7653 130.155C49.7653 130.155 44.7935 125.587 48.0998 123.693C53.0858 120.834 60.9755 133.348 60.9755 133.348C60.9755 133.348 60.4857 130.263 64.3926 129.922C71.4032 129.309 84.3707 154.199 84.3707 154.199H84.3698Z" fill="#624CF0"/>
<path d="M64.55 127.681C60.6431 128.023 60.9746 133.348 60.9746 133.348C60.9746 133.348 52.9428 118.515 47.9559 121.373C44.6496 123.268 48.5613 129.492 48.5613 129.492C48.5613 129.492 35.0347 121.775 31.8345 126.979L84.4419 154.066C82.6533 150.949 71.0973 127.107 64.5491 127.681H64.55Z" fill="#8C7BF7"/>
<path d="M34.218 155.434C34.218 155.808 34.5212 156.11 34.8954 156.11H203.837C204.211 156.11 204.514 155.808 204.514 155.434C204.514 155.061 204.211 154.759 203.837 154.759H34.8963C34.5221 154.759 34.219 155.061 34.219 155.434H34.218Z" fill="black"/>
<path d="M152.464 37.865L151.604 40.0026L148.005 39.0028L146.362 41.972L143.546 41.6639L143.389 43.0861L147.156 43.4991L148.713 40.6839L152.457 41.7244L153.75 38.5085L152.464 37.865Z" fill="#AAFE5A"/>
<path d="M165.266 95.1065L166.151 92.916C165.177 92.4728 164.279 91.8954 163.583 91.3114C163.001 90.8237 162.9 89.9704 163.35 89.3599L163.404 89.2862C163.899 88.6134 164.867 88.499 165.5 89.0443C166.145 89.6009 166.928 90.1197 167.832 90.4826C169.149 91.0118 170.255 90.8672 170.628 89.9449C170.982 89.0689 170.466 88.2184 168.988 86.9549C166.85 85.1311 165.628 83.3006 166.532 81.0638C167.352 79.0349 169.427 78.0199 172.095 78.5302L172.98 76.3397L175.245 77.2498L174.426 79.2787C175.251 79.6538 175.896 80.0441 176.411 80.4297C177.041 80.9012 177.168 81.7933 176.701 82.4265C176.219 83.0814 175.288 83.208 174.649 82.7033C174.171 82.3253 173.55 81.9275 172.735 81.5996C171.232 80.9957 170.486 81.4465 170.226 82.0919C169.919 82.8527 170.532 83.6616 172.198 85.1896C174.557 87.263 175.154 88.9772 174.316 91.0515C173.487 93.1031 171.323 94.2701 168.479 93.6625L167.529 96.0137L165.264 95.1036L165.266 95.1065Z" fill="#B9DE96"/>
<path d="M116.653 154.762H72.0966C70.3212 154.762 68.8821 153.327 68.8821 151.556C68.8821 149.785 70.3212 148.35 72.0966 148.35H116.653C118.429 148.35 119.868 149.785 119.868 151.556C119.868 153.327 118.429 154.762 116.653 154.762Z" fill="#9D9BF2"/>
<path d="M123.35 148.416H81.4054C79.63 148.416 78.191 146.98 78.191 145.209C78.191 143.439 79.63 142.003 81.4054 142.003H123.35C125.126 142.003 126.565 143.439 126.565 145.209C126.565 146.98 125.126 148.416 123.35 148.416Z" fill="#451B9F"/>
<path d="M117.375 135.587H77.2521C75.5171 135.587 74.1107 136.99 74.1107 138.72V138.868C74.1107 140.598 75.5171 142.001 77.2521 142.001H117.375C119.11 142.001 120.517 140.598 120.517 138.868V138.72C120.517 136.99 119.11 135.587 117.375 135.587Z" fill="#9D9BF2"/>
<path d="M77.0239 129.192H117.335C119.039 129.192 120.422 130.571 120.422 132.271V132.525C120.422 134.224 119.039 135.604 117.335 135.604H77.0239C75.3205 135.604 73.9364 134.224 73.9364 132.524V132.271C73.9364 130.571 75.3196 129.191 77.0239 129.191V129.192Z" fill="#451B9F"/>
<path d="M118.663 129.569H77.9816C76.2063 129.569 74.7672 128.133 74.7672 126.362C74.7672 124.591 76.2063 123.156 77.9816 123.156H118.663C120.438 123.156 121.877 124.591 121.877 126.362C121.877 128.133 120.438 129.569 118.663 129.569Z" fill="#9D9BF2"/>
<path d="M116.907 123.238H76.2262C74.4508 123.238 73.0118 121.803 73.0118 120.032C73.0118 118.261 74.4508 116.825 76.2262 116.825H116.907C118.683 116.825 120.122 118.261 120.122 120.032C120.122 121.803 118.683 123.238 116.907 123.238Z" fill="#451B9F"/>
<path d="M79.9786 104.438H118.945C120.684 104.438 122.096 105.846 122.096 107.581V107.708C122.096 109.443 120.684 110.851 118.945 110.851H79.9786C78.2393 110.851 76.8277 109.443 76.8277 107.708V107.581C76.8277 105.846 78.2393 104.438 79.9786 104.438Z" fill="#451B9F"/>
<path d="M85.0017 110.604H122.437C124.144 110.604 125.53 111.986 125.53 113.689V113.931C125.53 115.634 124.144 117.016 122.437 117.016H85.0017C83.2946 117.016 81.9086 115.634 81.9086 113.931V113.689C81.9086 111.986 83.2946 110.604 85.0017 110.604Z" fill="#9D9BF2"/>
<path d="M79.6684 150.17C87.0386 142.818 87.0386 130.899 79.6684 123.547C72.2982 116.195 60.3488 116.195 52.9786 123.547C45.6084 130.899 45.6084 142.818 52.9786 150.17C60.3488 157.522 72.2982 157.522 79.6684 150.17Z" fill="#A5BCDB"/>
<path d="M77.0598 125.246C83.4887 131.161 83.8942 141.154 77.9646 147.568C72.035 153.982 62.0166 154.385 55.5868 148.471C49.1579 142.556 48.7525 132.562 54.6821 126.149C60.6116 119.735 70.6301 119.332 77.0598 125.246Z" fill="#8C7BF7"/>
<path d="M76.7093 141.791C77.0731 142.269 77.0484 142.936 76.6486 143.384C75.8642 144.263 74.5824 145.326 72.9719 146.114C70.6158 147.268 67.9101 147.62 65.3551 146.751C63.7587 146.207 62.2373 145.096 61.0919 143.58L59.7002 144.262C59.2275 144.493 58.6553 144.298 58.4232 143.827L58.4052 143.791C58.1731 143.319 58.3682 142.749 58.841 142.517L59.9835 141.958C59.7552 141.583 59.597 141.352 59.4918 141.138C59.3165 140.782 59.1422 140.338 58.9859 139.84L57.8083 140.416C57.3356 140.648 56.7634 140.453 56.5313 139.982C56.2992 139.51 56.4943 138.939 56.9671 138.708L58.3948 138.009C57.9808 136.178 58.048 134.334 58.5927 132.741C59.5193 130.034 61.5618 127.973 64.025 126.767C65.4612 126.064 66.67 125.779 67.661 125.673C68.3497 125.598 68.974 126.081 69.0735 126.764L69.0763 126.786C69.1796 127.494 68.6803 128.146 67.9689 128.243C67.1598 128.354 66.2162 128.61 65.1448 129.134C63.574 129.903 62.2486 131.171 61.5959 132.993C61.2321 134.056 61.1345 135.296 61.4993 136.488L69.5311 132.555C70.0038 132.323 70.576 132.518 70.8081 132.99C71.0402 133.461 70.8451 134.032 70.3723 134.264L61.9834 138.371C62.1406 138.781 62.2979 139.19 62.4201 139.439C62.5774 139.76 62.7356 140.08 62.9819 140.49L71.3889 136.373C71.872 136.137 72.4556 136.335 72.6924 136.817C72.9293 137.299 72.7303 137.881 72.2472 138.117L64.1974 142.059C64.9553 142.969 65.8932 143.614 66.851 143.94C68.7495 144.557 70.4225 144.356 72.2074 143.483C73.295 142.95 74.1779 142.278 74.8363 141.647C75.3782 141.127 76.2526 141.194 76.7074 141.79L76.7093 141.791Z" fill="white"/>
<path d="M76.7074 86.3406C76.9585 86.7451 76.8865 87.2705 76.5359 87.5937C75.8491 88.2268 74.7549 88.9677 73.4229 89.4667C71.4741 90.1962 69.3104 90.2671 67.3607 89.3835C66.1424 88.8316 65.0273 87.8375 64.24 86.5523L63.088 86.9832C62.6968 87.1297 62.26 86.9322 62.1132 86.5419L62.1018 86.5126C61.955 86.1223 62.153 85.6867 62.5442 85.5402L63.4897 85.1868C63.3381 84.874 63.2311 84.6784 63.1648 84.5017C63.0539 84.2068 62.9507 83.843 62.8654 83.4376L61.8906 83.8024C61.4993 83.9488 61.0626 83.7513 60.9157 83.361C60.7689 82.9707 60.9669 82.5351 61.3581 82.3886L62.5395 81.9464C62.3548 80.4693 62.5499 79.0188 63.1032 77.8035C64.0439 75.7377 65.8155 74.2673 67.8533 73.5047C69.0413 73.0596 70.018 72.9282 70.8081 72.9197C71.3576 72.9141 71.8133 73.3431 71.8389 73.8902V73.9073C71.8664 74.4752 71.422 74.9505 70.8527 74.9732C70.2056 74.9987 69.4401 75.1282 68.5544 75.4599C67.2546 75.9466 66.1111 76.8453 65.4546 78.2335C65.0851 79.0443 64.9117 80.0157 65.1078 80.9844L71.7527 78.4962C72.1439 78.3497 72.5807 78.5472 72.7275 78.9375C72.8744 79.3278 72.6764 79.7634 72.2851 79.9099L65.3447 82.5077C65.4366 82.8432 65.5294 83.1777 65.6071 83.3847C65.7066 83.6493 65.807 83.9148 65.969 84.2569L72.9236 81.6534C73.3234 81.5041 73.7687 81.7054 73.9193 82.1042C74.069 82.503 73.8672 82.9471 73.4674 83.0964L66.8084 85.5894C67.337 86.3661 68.0267 86.9483 68.758 87.279C70.2094 87.9122 71.5452 87.8819 73.0221 87.3291C73.9221 86.9917 74.6706 86.5296 75.2399 86.0817C75.7079 85.7131 76.3929 85.8332 76.7065 86.3387L76.7074 86.3406Z" fill="#E8F2FF"/>
<path d="M138.379 64.1879L140.499 63.1173L142.586 64.2522C142.823 64.3817 143.107 64.1832 143.065 63.9158L142.699 61.5731L144.426 59.9449C144.623 59.7597 144.521 59.4299 144.254 59.3864L141.907 59.0093L140.889 56.868C140.772 56.6242 140.426 56.6185 140.303 56.8585L139.219 58.9678L136.862 59.2721C136.593 59.307 136.481 59.633 136.672 59.8249L138.348 61.5051L137.91 63.8355C137.86 64.101 138.138 64.308 138.379 64.1861V64.1879Z" fill="#624CF0"/>
<path d="M95.8243 21.2008L93.6331 21.4229L92.8865 17.9453L89.6418 17.8754L88.6565 15.3645L87.3823 15.8625L88.7001 19.221L91.7743 19.2872L92.5521 22.9047L95.849 22.5711L95.8243 21.2008Z" fill="#AAFE5A"/>
<path d="M140.849 73.311L143.194 74.0822C143.194 74.0822 146.91 72.8811 147.277 72.1251C147.643 71.3691 147.747 69.5358 148.275 69.4857C148.804 69.4356 149.826 69.6076 150.07 70.8616C150.247 71.7726 148.909 74.4053 149.118 74.6851C149.248 74.8608 150.583 75.3418 151.564 75.6783C152.209 75.8994 152.674 76.4654 152.773 77.1487V77.1506C152.84 77.6127 152.577 78.0616 152.144 78.2288L151.47 78.4887L151.685 79.1833C151.845 79.7002 151.561 80.2558 151.049 80.4278L150.527 80.6027L150.694 81.026C150.909 81.5713 150.606 82.1893 150.045 82.3519L149.589 82.4842L149.608 82.6061C149.687 83.1116 149.369 83.5983 148.877 83.7268L148.424 83.845L142.181 81.7896C141.596 81.5968 141.057 81.2849 140.599 80.8729L138.525 79.7815C138.302 79.6643 138.2 79.3987 138.283 79.1568L140.206 73.6352C140.299 73.3687 140.585 73.2241 140.849 73.311Z" fill="#624CF0"/>
<path d="M65.6876 65.7756C65.6573 65.6896 64.9231 64.4375 63.9748 63.0767C59.5657 56.7414 53.0289 50.6348 45.3618 50.8635L45.3561 50.8172C48.8226 50.4382 52.2189 51.3587 55.2002 53.0001C60.119 55.6452 64.9108 60.6849 67.5331 64.5584L65.6876 65.7756Z" fill="#624CF0"/>
<path d="M116.105 57.8697C116.105 57.8697 116.33 57.4161 116.316 56.369C116.299 55.0744 116.039 53.1192 115.987 52.9462C115.893 52.6334 120.093 51.3208 120.093 51.3208C120.093 51.3208 126.831 50.9768 127.834 50.2265C128.837 49.4762 129.681 49.1672 129.213 49.9449C128.367 51.352 126.393 53.4149 125.954 53.6965C125.515 53.9782 120.281 55.2908 120.187 55.2908C120.093 55.2908 120.124 58.5737 120.124 58.5737L116.105 57.8706V57.8697Z" fill="#F4AE7E"/>
<path d="M120.477 56.4711C120.477 56.4711 116.114 55.7312 116.035 56.1659C114.272 65.7945 113.973 68.9773 113.778 69.0774C113.114 69.4176 103.618 61.1054 102.049 60.5611C101.298 60.3012 100.481 60.3447 99.6983 60.3674C97.832 60.4222 98.4611 60.3778 97.4768 60.426V60.4278C97.4247 60.4316 97.3943 60.4335 97.3943 60.4335L97.4048 62.1846C99.5079 64.0718 104.322 92.6627 104.728 92.6438C105.181 92.6231 114.697 95.012 114.529 94.2116C114.502 94.0812 108.078 88.8374 106.256 81.2689C105.644 78.7278 105.342 75.992 105.011 73.5983C107.126 74.6558 115.384 78.7098 116.692 78.174C120.764 76.508 120.477 56.4702 120.477 56.4702V56.4711Z" fill="#68CA0D"/>
<path d="M136.865 107.235C136.865 107.235 145.72 114.153 146.015 115.38C146.44 117.146 154.548 114.824 152.593 114.464C152.143 114.381 150.704 114.017 150.585 113.954C149.952 113.616 142.074 104.146 142.074 104.146L136.865 107.235Z" fill="#F4AE7E"/>
<path d="M156.395 114.464L150.742 114.005C150.742 114.005 149.125 115.339 146.02 115.401C146.02 115.401 145.523 116.816 145.759 118.471C145.8 118.756 145.848 119.619 146.136 119.599C147.181 119.528 149.964 118.837 153.134 118.205C153.134 118.205 157.395 117.306 159.856 115.836C162.317 114.368 156.394 114.464 156.394 114.464H156.395Z" fill="black"/>
<path d="M97.1935 89.8807C97.1935 89.8807 103.677 90.9675 110.848 89.2939C119.145 87.3576 128.32 85.5677 131.009 87.126C133.173 88.381 146.685 108.748 146.685 108.748L141.467 112.546L126.588 95.9268C126.588 95.9268 107.606 102.913 103.343 102.139C93.6333 100.376 93.495 92.6411 97.1935 89.8798V89.8807Z" fill="black"/>
<path d="M104.282 85.7709L110.769 93.4613L98.7348 97.1194L97.1934 89.8807L104.282 85.7709Z" fill="#9369BF"/>
<path d="M117.466 120.898C117.466 120.898 117.072 131.581 116.828 133.389C116.584 135.19 121.372 140.615 120.76 138.729C120.619 138.295 120.257 136.858 120.256 136.724C120.253 136.008 122.031 123.822 122.031 123.822L117.466 120.898Z" fill="#F4AE7E"/>
<path d="M122.566 142.066L120.285 136.886C120.285 136.886 118.341 136.102 116.811 133.406C116.811 133.406 115.327 133.642 113.98 134.635C113.748 134.806 112.164 135.962 112.275 136.228C112.681 137.209 114.837 139.311 117.195 141.605C117.195 141.605 120.537 144.295 123.003 145.757C125.468 147.219 122.568 142.066 122.568 142.066L122.566 142.066Z" fill="black"/>
<path d="M127.975 99.8391C125.707 96.8236 107.41 93.9593 107.41 93.9593L102.307 84.1776L91.0251 91.1177C91.0251 91.1177 92.1525 100.073 92.9995 102.465C94.1278 105.654 101.71 105.816 106.341 105.769C110.603 105.726 118.385 106.592 118.385 106.592L115.752 129.757C115.752 129.757 120.927 130.931 122.381 130.742C122.545 130.72 130.796 103.591 127.975 99.8391Z" fill="black"/>
<path d="M97.4577 60.4486L91.0923 60.7964C91.0923 60.7964 90.9465 60.8474 90.9019 60.8559C90.3837 60.9513 90.8546 79.4554 91.3169 86.3662C91.7792 93.277 92.7171 96.1809 92.7171 96.1809C92.7171 96.1809 101.35 94.6519 103.999 93.6257C105.099 93.2004 107.76 89.8816 107.76 89.8816C107.76 89.8816 105.041 86.2358 103.672 80.3135C102.616 75.7463 101.314 67.6486 100.568 65.9589C98.856 62.0778 97.4577 60.4486 97.4577 60.4486Z" fill="#E6F6FF"/>
<path d="M91.2732 55.1973L91.0923 60.804C91.0923 60.804 95.2124 67.8858 97.3288 66.8992C99.1042 66.0714 97.5278 60.684 97.5278 60.684C97.5278 60.684 97.2208 59.4489 96.7945 58.0295C96.4961 57.0382 96.2488 55.9637 96.2668 55.1756C96.3113 53.2601 91.2732 55.1973 91.2732 55.1973Z" fill="#F4AE7E"/>
<path d="M96.1959 42.4105C96.1959 42.4105 98.2962 45.5678 98.4525 48.2251C98.6088 50.8825 98.0451 52.6959 98.0451 52.6959L91.3074 44.6615L96.1968 42.4105H96.1959Z" fill="black"/>
<path d="M99.1506 47.6817C99.2454 48.6126 98.8835 49.4111 98.3407 49.4659C97.7988 49.5207 97.2824 48.812 97.1868 47.8811C97.092 46.9503 97.4539 46.1518 97.9968 46.097C98.5387 46.0422 99.055 46.7509 99.1506 47.6817Z" fill="#F19A5E"/>
<path d="M89.1266 45.9486C88.9721 45.9155 88.9873 53.6503 91.2345 55.4704C93.4816 57.2904 97.3942 57.4502 98.5358 55.6169C99.7996 53.5889 98.5974 45.4392 95.2551 43.708C91.9128 41.9767 89.1266 45.9486 89.1266 45.9486Z" fill="#F4AE7E"/>
<path d="M88.5572 41.1527C86.8416 42.6534 86.0107 43.7496 84.8502 46.4173C83.4225 49.6974 86.2551 53.0966 88.6292 54.447C91.0043 55.7974 91.2051 57.4559 91.2051 57.4559L91.2989 56.4239C91.4003 55.6226 91.1578 55.1652 90.9304 54.6813C90.7286 54.2504 90.0787 52.7734 89.8258 52.384C89.1579 51.3559 89.0262 51.1338 89.3559 50.1567C89.6098 49.4045 89.3161 47.7469 89.7083 46.5071L92.9047 45.8191C92.9047 45.8191 94.9056 45.3391 95.9154 44.1767C98.8163 40.839 93.0819 37.1166 88.5563 41.1527H88.5572Z" fill="black"/>
<path d="M90.1166 51.0025C90.5107 51.8511 90.4282 52.7243 89.9337 52.9529C89.4392 53.1816 88.7192 52.678 88.3251 51.8293C87.931 50.9807 88.0134 50.1076 88.5079 49.8789C89.0024 49.6502 89.7224 50.1539 90.1166 51.0025Z" fill="#F4AE7E"/>
<path d="M47.0634 53.7741L46.5452 50.2105L49.194 47.7639C49.4953 47.4851 49.3456 46.9824 48.941 46.9134L45.3837 46.3039L43.8698 43.0351C43.6974 42.6628 43.1716 42.6496 42.9802 43.0125L41.3005 46.199L37.7166 46.6252C37.3083 46.6734 37.133 47.1686 37.4201 47.4615L39.9392 50.0404L39.2381 53.5719C39.1585 53.9745 39.5754 54.2929 39.9439 54.1115L43.181 52.5182L46.332 54.275C46.691 54.4753 47.124 54.1776 47.0653 53.7722L47.0634 53.7741Z" fill="#624CF0"/>
<path d="M68.3346 29.6653C68.6975 31.1536 69.3531 33.5076 69.3531 33.5076C69.301 34.154 69.1096 36.8463 68.8813 40.1463L73.7432 38.2052C73.7432 38.2052 73.6854 32.8291 73.9023 32.4993C74.0861 32.2215 74.394 32.5683 75.8842 30.4411C76.3143 29.8269 76.3949 28.7297 76.3949 28.7297C76.3949 28.7297 76.4839 27.3793 76.1798 27.2536C75.8757 27.1279 75.5271 27.3292 75.4172 27.5626C75.3073 27.7961 75.3357 28.3394 75.2249 28.5728C75.115 28.8063 74.412 29.0879 74.1155 29.0728C73.819 29.0586 74.1524 25.0782 74.1524 25.0782C74.1524 25.0782 74.3173 23.9499 74.4016 23.5804C74.4726 23.2657 74.7606 22.3425 74.7606 22.3425C74.7606 22.3425 75.0979 21.0034 74.6811 20.9004C74.4357 20.8399 73.8085 21.9285 73.3794 23.0833C72.9171 24.327 72.6546 25.6462 72.523 25.6282C72.2122 25.5866 72.3771 23.4046 72.3771 23.4046C72.3771 23.4046 72.6869 22.4048 72.6783 21.9333C72.9701 21.3549 73.1643 20.2833 72.6499 20.1945C72.5552 20.1784 71.8769 21.5402 71.8769 21.5402C71.8769 21.5402 71.6106 22.4993 71.4553 22.9473C71.1815 23.7382 71.1398 24.9856 70.9967 25.5366C70.8774 25.9939 70.7703 25.8059 70.7211 25.8257C70.6832 25.8409 70.7495 25.2086 70.8253 24.3411C70.8632 23.9036 70.813 23.3999 70.9361 22.9019C71.0498 22.4407 71.1142 21.7811 71.1445 21.3823C71.2279 20.254 70.5155 20.3693 70.2692 21.4012C70.1754 21.7944 70.0769 22.2234 69.9783 22.6581C69.5956 24.3496 69.607 25.9798 69.4232 25.9939C69.1854 26.0119 69.3417 23.0437 69.3417 23.0437C69.3417 23.0437 68.977 21.4012 68.6151 22.9255C68.1954 24.6946 68.239 26.1376 68.2446 26.2009C68.2825 26.6328 67.9699 28.1769 68.3337 29.6662L68.3346 29.6653Z" fill="#F4AE7E"/>
<path d="M91.0839 60.8067C91.0839 60.8067 84.782 60.5109 83.1534 59.7757C82.1663 59.3306 74.0577 52.813 74.0577 52.813L74.1487 35.3616L68.4455 34.9288C68.4455 34.9288 65.4888 54.2182 66.5129 56.3293C67.5702 58.5094 79.4407 67.486 81.8139 71.3813C83.1819 73.6256 86.0334 104.144 86.4654 104.419C89.5368 106.014 99.0209 107.606 98.7973 106.639C92.6233 79.9108 91.0839 60.8077 91.0839 60.8077V60.8067Z" fill="#68CA0D"/>
<path d="M119.263 53.2232C129.738 53.2232 138.23 44.7529 138.23 34.3043C138.23 23.8557 129.738 15.3854 119.263 15.3854C108.788 15.3854 100.297 23.8557 100.297 34.3043C100.297 44.7529 108.788 53.2232 119.263 53.2232Z" fill="#A5BCDB"/>
<path d="M130.516 45.5293C136.732 39.3297 136.732 29.2782 130.516 23.0786C124.301 16.879 114.225 16.879 108.009 23.0786C101.794 29.2782 101.794 39.3297 108.009 45.5293C114.225 51.7289 124.301 51.7289 130.516 45.5293Z" fill="#8C7BF7"/>
<path d="M114.335 44.497L115.241 42.005C114.13 41.5467 113.101 40.9343 112.296 40.3068C111.625 39.7833 111.477 38.8288 111.957 38.1267L112.015 38.0417C112.544 37.2677 113.624 37.1004 114.357 37.6882C115.102 38.2864 116.001 38.8373 117.03 39.2097C118.529 39.7521 119.764 39.5452 120.145 38.4962C120.507 37.5002 119.895 36.5656 118.187 35.2067C115.717 33.2448 114.274 31.2395 115.199 28.6956C116.038 26.3879 118.326 25.1679 121.339 25.6338L122.245 23.1418L124.821 24.0736L123.983 26.3813C124.924 26.7697 125.663 27.1817 126.257 27.5947C126.982 28.0993 127.159 29.0953 126.661 29.8239C126.146 30.5771 125.107 30.7557 124.369 30.2152C123.817 29.8098 123.107 29.3883 122.178 29.0528C120.469 28.4348 119.651 28.9697 119.383 29.7039C119.069 30.5695 119.789 31.4531 121.719 33.1003C124.447 35.3333 125.185 37.2327 124.327 39.5924C123.478 41.9266 121.097 43.3204 117.883 42.7515L116.911 45.4268L114.334 44.4951L114.335 44.497Z" fill="white"/>
<path d="M118.776 53.3215C118.776 53.3215 120.531 52.5711 121.002 52.4152C121.472 52.2593 122.976 51.9777 122.976 51.9777C122.976 51.9777 125.311 49.5859 125.906 49.5235C126.501 49.4612 124.543 52.1336 124.543 52.1336L123.728 52.9151C123.728 52.9151 125.044 51.7896 125.295 51.6337C125.546 51.4778 127.52 48.6324 128.022 48.8204C128.523 49.0076 127.176 51.0091 126.517 52.0712C125.859 53.1344 122.85 53.7902 122.85 53.7902L118.776 53.3215Z" fill="#F4AE7E"/>
<path d="M139.752 61.0449C139.748 61.5136 129.09 61.6431 126.881 71.0704L125.46 70.6045C128.625 61.0213 139.178 61.4068 139.695 61.0544C139.702 61.0496 139.706 61.044 139.705 61.0449H139.752Z" fill="#624CF0"/>
<path d="M184.599 121.692L184.966 120.435C186.903 120.071 188.572 118.754 189.121 116.869C189.297 116.265 189.419 115.756 189.508 115.072L186.912 114.32L187.373 112.736L189.717 113.416C189.811 112.625 189.945 111.6 190.231 110.621C191.095 107.654 193.701 106.309 196.498 107.121C197.297 107.353 197.913 107.652 198.37 107.96C198.786 108.24 198.894 108.803 198.621 109.222C198.347 109.643 197.787 109.763 197.358 109.5C197.001 109.281 196.548 109.071 195.978 108.905C194.012 108.336 192.81 109.459 192.29 111.244C191.975 112.325 191.892 113.174 191.809 114.023L195.438 115.075L194.977 116.659L191.549 115.665C191.347 116.642 191.118 117.613 190.628 118.452C190.036 119.452 189.168 120.182 188.098 120.663L188.083 120.713L194.707 122.633C195.197 122.775 195.478 123.286 195.336 123.775L195.316 123.841C195.174 124.33 194.661 124.61 194.172 124.469L184.598 121.693L184.599 121.692Z" fill="#624CF0"/>
</g>
<defs>
<clipPath id="clip0_1_949">
<rect width="216" height="189" fill="white" transform="translate(0 -16)"/>
</clipPath>
</defs>
</svg>
