<svg width="22" height="22" viewBox="0 0 22 22" fill="none" xmlns="http://www.w3.org/2000/svg">
<path d="M3.6667 19.9994C4.21906 20.1667 4.96513 20.1667 6.23334 20.1667H15.7667C17.0349 20.1667 17.781 20.1667 18.3333 19.9994M3.6667 19.9994C3.54826 19.9635 3.43873 19.9199 3.33487 19.867C2.81742 19.6033 2.39673 19.1826 2.13308 18.6652C1.83334 18.0769 1.83334 17.3069 1.83334 15.7667V6.23337C1.83334 4.69323 1.83334 3.92316 2.13308 3.3349C2.39673 2.81745 2.81742 2.39676 3.33487 2.13311C3.92313 1.83337 4.6932 1.83337 6.23334 1.83337H15.7667C17.3068 1.83337 18.0769 1.83337 18.6651 2.13311C19.1826 2.39676 19.6033 2.81745 19.8669 3.3349C20.1667 3.92316 20.1667 4.69323 20.1667 6.23337V15.7667C20.1667 17.3069 20.1667 18.0769 19.8669 18.6652C19.6033 19.1826 19.1826 19.6033 18.6651 19.867C18.5613 19.9199 18.4518 19.9635 18.3333 19.9994M3.6667 19.9994C3.667 19.2575 3.67145 18.8649 3.73713 18.5347C4.02646 17.0802 5.16348 15.9432 6.61801 15.6538C6.97221 15.5834 7.39814 15.5834 8.25001 15.5834H13.75C14.6019 15.5834 15.0278 15.5834 15.382 15.6538C16.8365 15.9432 17.9736 17.0802 18.2629 18.5347C18.3286 18.8649 18.333 19.2575 18.3333 19.9994M14.6667 8.70837C14.6667 10.7334 13.0251 12.375 11 12.375C8.97497 12.375 7.33334 10.7334 7.33334 8.70837C7.33334 6.68333 8.97497 5.04171 11 5.04171C13.0251 5.04171 14.6667 6.68333 14.6667 8.70837Z" stroke="black" stroke-opacity="0.5" stroke-width="1.5" stroke-linecap="round" stroke-linejoin="round"/>
</svg>
